<svg xmlns="http://www.w3.org/2000/svg" viewBox="0 0 126.09 169.09"><defs><style>.cls-1{fill:#b5beb8;}.cls-2{fill:#f3f3f3;}.cls-3{fill:none;}</style></defs><title>アセット 5</title><g id="レイヤー_2" data-name="レイヤー 2"><g id="レイヤー_1-2" data-name="レイヤー 1"><path class="cls-1" d="M.25.25v126H49.9A34.07,34.07,0,0,1,92.25,80.53v-59l-10-9.28-12-12Z" transform="translate(-0.25)"/><path class="cls-1" d="M92.92,104.67a6.18,6.18,0,0,1-.48,2.47,8.75,8.75,0,0,1-1.24,2.06,11.87,11.87,0,0,1-1.68,1.72c-.61.52-1.21,1-1.79,1.43l-1.62,1.21A6,6,0,0,0,85,114.62a5,5,0,0,0-.36.63,2.24,2.24,0,0,0-.21,1,3.23,3.23,0,0,1-.87,2.32,3.64,3.64,0,0,1-2.72.91,4.25,4.25,0,0,1-1.84-.35,3.54,3.54,0,0,1-1.14-.88,2.91,2.91,0,0,1-.6-1.12,4.09,4.09,0,0,1-.17-1.09,6.6,6.6,0,0,1,.6-3A7.66,7.66,0,0,1,79.2,111a12.8,12.8,0,0,1,2-1.52,20.89,20.89,0,0,0,1.95-1.35,6.81,6.81,0,0,0,1.51-1.58,3.73,3.73,0,0,0,.6-2.17,4.34,4.34,0,0,0-.45-2.14,3.1,3.1,0,0,0-1.12-1.15,3.54,3.54,0,0,0-1.38-.47,10,10,0,0,0-1.21-.09,4.92,4.92,0,0,0-2.09.37,3.09,3.09,0,0,0-1.18,1,3.14,3.14,0,0,0-.52,1.27,7.6,7.6,0,0,0-.12,1.31,3.54,3.54,0,0,1-.39,1.73,3.48,3.48,0,0,1-1,1.16,4,4,0,0,1-1.28.65,4.36,4.36,0,0,1-1.26.21,4.16,4.16,0,0,1-2.87-1,3.23,3.23,0,0,1-1.09-2.51,11.73,11.73,0,0,1,.16-1.74,10.8,10.8,0,0,1,.6-2.27,11,11,0,0,1,1.25-2.39,8.75,8.75,0,0,1,2.1-2.16,10.73,10.73,0,0,1,3.18-1.57A15.11,15.11,0,0,1,81.05,94a15.39,15.39,0,0,1,5.17.79A10.41,10.41,0,0,1,89.93,97a9.28,9.28,0,0,1,2.23,3.39A11.83,11.83,0,0,1,92.92,104.67Zm-7.6,21.92a4.31,4.31,0,0,1-1.12,3.27,4.44,4.44,0,0,1-3.15,1,4.49,4.49,0,0,1-3.2-1,4.28,4.28,0,0,1-1.12-3.27,4.17,4.17,0,0,1,1.12-3.25,4.57,4.57,0,0,1,3.2-1,4.45,4.45,0,0,1,3.21,1A4.31,4.31,0,0,1,85.32,126.59Z" transform="translate(-0.25)"/><path class="cls-1" d="M125,164.77l-5.61,3.82c-1.78,1.22-4.66.12-6.25-2.38L97.73,141.83c-1.4-2.2-1.3-4.72.22-5.86l1.7-1.28c1.51-1.14,4-.53,5.68,1.41l19.35,21.84C126.74,160.26,126.91,163.49,125,164.77Z" transform="translate(-0.25)"/><path class="cls-1" d="M94,22.38V83.21a32.77,32.77,0,0,0-3.55-1.33V24L80,14.68,68.32,4.13H3.8V125.54H50.63a33.17,33.17,0,0,0,1.72,3.55H.25V.58H69.67l.63.55L82.38,12Z" transform="translate(-0.25)"/><rect class="cls-2" x="17.75" y="36.44" width="56.8" height="3.55"/><rect class="cls-2" x="18.11" y="51.2" width="56.8" height="3.55"/><rect class="cls-2" x="18.11" y="65.97" width="56.8" height="3.55"/><path class="cls-2" d="M74.8,80.74H18v3.55H65.48A32.37,32.37,0,0,1,74.8,81Z" transform="translate(-0.25)"/><path class="cls-2" d="M18.36,95.51v3.55h33a31.61,31.61,0,0,1,2-3.55Z" transform="translate(-0.25)"/><path class="cls-2" d="M48.31,110.28H18.36v3.55H48.19c0-.24,0-.48,0-.71C48.18,112.16,48.23,111.21,48.31,110.28Z" transform="translate(-0.25)"/><path class="cls-1" d="M74.8,81a32.37,32.37,0,0,0-9.32,3.27H74.8Z" transform="translate(-0.25)"/><path class="cls-3" d="M56.21,126.25a28.4,28.4,0,1,0,36-39.65v39.65Z" transform="translate(-0.25)"/><path class="cls-1" d="M92.25,80.53V86.6a28.4,28.4,0,1,1-36,39.65H49.9A34.08,34.08,0,1,0,92.25,80.53Z" transform="translate(-0.25)"/><path class="cls-1" d="M52.79,112.76A28.4,28.4,0,0,1,92.25,86.6V80.53A34.07,34.07,0,0,0,49.9,126.25h6.31A28.17,28.17,0,0,1,52.79,112.76Z" transform="translate(-0.25)"/><rect class="cls-2" x="67" y="21.53" width="27" height="3.73"/><rect class="cls-2" x="67.1" width="3.55" height="23.08"/></g></g></svg>