<svg xmlns="http://www.w3.org/2000/svg" viewBox="0 0 102.22 187.58"><defs><style>.cls-1{fill:#818c86;}</style></defs><title>アセット 4</title><g id="レイヤー_2" data-name="レイヤー 2"><g id="レイヤー_1-2" data-name="レイヤー 1"><path class="cls-1" d="M34,187.52l-.47-.09a1.78,1.78,0,0,1-.89-1.6c-.1-1.51-.25-3-.4-4.53a6.49,6.49,0,0,1,.07-2.11c.51-2.16-.1-4.2-.76-6.17a62.45,62.45,0,0,0-2.53-6,13.92,13.92,0,0,0-2.61-4.18c-1.43-1.43-2.71-3.07-4.81-3.78a5.89,5.89,0,0,1-2.68-2.24.93.93,0,0,0-1.14-.45,1.58,1.58,0,0,1-1.3-.19,15.81,15.81,0,0,1-3.5-3.13,1.16,1.16,0,0,1-.32-1,5.64,5.64,0,0,0,1.3,1.66.32.32,0,0,0,.07-.38A12.3,12.3,0,0,0,13,151a3.2,3.2,0,0,0-1.45-1.71,4.18,4.18,0,0,1-2-2.22,1.27,1.27,0,0,1,.13-1.58,1.26,1.26,0,0,0,.16-1.48,31,31,0,0,0-1.51-3.19,10.51,10.51,0,0,1-1.25-3.29A30.14,30.14,0,0,1,6,132a18.2,18.2,0,0,0-1.32-5.65c-.14-.38-.33-.47-.71-.34s-.71.37-1.07.19A11.64,11.64,0,0,1,.39,124.7a1.36,1.36,0,0,1-.28-1.53,1,1,0,0,1,1-.7c1.52-.11,1.58-.18,1.33-1.7a.13.13,0,0,1,0-.06,1.24,1.24,0,0,0-1.19-1.34.88.88,0,0,1-.78-1.25,52.38,52.38,0,0,1,2.94-7.19c.41-.75.73-1.64,1.71-1.92a.47.47,0,0,0,.27-.49,24.64,24.64,0,0,0,0-4.12c-.55-4-1.39-7.89-1.58-11.91l.07-.35c1.39-2.75,2.75-5.52,4.19-8.24a6.85,6.85,0,0,1,2.56-3.15.74.74,0,0,0,.28-.3c.77-1.21,1.59-2.39,2.27-3.65C14.5,74.46,15.6,72,16.9,69.73c1.76-3.14,3.27-6.47,6.08-8.9a.89.89,0,0,0,.32-.55,8.71,8.71,0,0,1,.58-1.72c1.87-4.87,4-9.6,7.88-13.25l0-.05a3.79,3.79,0,0,0,.93-1.55c.62-1.76,1.44-3.44,2.16-5.16a2.23,2.23,0,0,1,.46-.75c2.67-2.59,5.49-5,8.34-7.38a2.71,2.71,0,0,0,.92-1.33c.13-.42.25-.83.38-1.24a25.86,25.86,0,0,1,2.78-6.73c1-1.52,1.9-3.07,2.82-4.63a10.81,10.81,0,0,1,4-3.66c1.72-1,3.6-1.75,5.38-2.67a7.59,7.59,0,0,1,3.45-.86,19.64,19.64,0,0,0,4.7-.77,4.89,4.89,0,0,0,1.75-.84c1.25-.94,1.77-.92,2.9.16a1.93,1.93,0,0,0,.78.58c-.61-.72-1.27-1.39-1.94-2a.86.86,0,0,1-.1-1.3c.57-.72,1-1.53,1.68-2.2A7.78,7.78,0,0,1,77.11.2C77.94,0,78.8.14,79.63,0l.58.11c.45.27.91.54,1.35.83a2.81,2.81,0,0,1,1.19,1.27,12.71,12.71,0,0,0,2.68,3.84,8.89,8.89,0,0,0,3.41,2.24A30.28,30.28,0,0,0,95.4,9.6a1.84,1.84,0,0,1,1.08.52l4.61,4.55c.39.39.75.8,1.13,1.2l-.09.46a9.33,9.33,0,0,1-1.8.87,10,10,0,0,0-3.74,2.28,33.61,33.61,0,0,0-3.69,4.88,2.2,2.2,0,0,0-.28.71c-.49,2.52-1.08,5-.52,7.64.25,1.16.31,2.37.48,3.56a2,2,0,0,0,.79,1.64,2,2,0,0,1,.95,1.59A14.06,14.06,0,0,1,94,44.42a2.37,2.37,0,0,1-1.42,1.91,3.9,3.9,0,0,0-2.06,2.59c-.35,1.21-.53,2.46-.84,3.68A2.72,2.72,0,0,0,90,54.91c.25.37.11.61-.28.78a2.78,2.78,0,0,0-1.15.89c-1.09,1.4-2.19,2.77-3.28,4.17a9.32,9.32,0,0,0-1.11,1.6l-2.46,5A2.62,2.62,0,0,0,81.8,70a1.17,1.17,0,0,1,.21.72,55.28,55.28,0,0,1-2,10.75,90.1,90.1,0,0,0-2.7,10.61c-.74,4.68-1.76,9.3-2.94,13.89a63.44,63.44,0,0,1-2.7,8.09c-1.64,4-2.91,8.06-4.89,11.87-1.83,3.5-3.3,7.18-5.55,10.46-.85,1.25-1.68,2.52-2.43,3.83a12.48,12.48,0,0,1-2.63,2.84,1.61,1.61,0,0,1-.75.34,4.79,4.79,0,0,0-2.8,1.71c-.43.56-1,1-1.4,1.6a29.6,29.6,0,0,0-4.23,6.7c-1.28,3.13-2.42,6.32-3.74,9.43a12.51,12.51,0,0,0-.86,6.43,69.84,69.84,0,0,1,.21,11.66,2.32,2.32,0,0,1-.29,1c-.84,1.63-1.7,3.24-2.5,4.88a1.18,1.18,0,0,1-1.28.76C37,187.51,35.47,187.53,34,187.52Z"/></g></g></svg>