<svg xmlns="http://www.w3.org/2000/svg" viewBox="0 0 163.31 163.34"><defs><style>.cls-1{fill:#657265;}</style></defs><title>アセット 3</title><g id="レイヤー_2" data-name="レイヤー 2"><g id="レイヤー_1-2" data-name="レイヤー 1"><path class="cls-1" d="M16.6,64.61a11.17,11.17,0,0,1-.7-3.76c.06-.48.06-1,.62-1.13s.89.21,1.16.61a41.83,41.83,0,0,1,2.68,4.51,2.17,2.17,0,0,1,.18,1.25,2.61,2.61,0,0,0,1.2,2.61c1.43,1,2.87,2,4.79,1.77a3,3,0,0,1,2.6.73,8,8,0,0,0,3,1.75,5.13,5.13,0,0,1,2.59,2,3.48,3.48,0,0,0,.77.71.43.43,0,0,0,.63,0c.14-.19,0-.39-.15-.5a2.87,2.87,0,0,1-1.19-3.35c.19-.79-.7-.92-1.26-1.1C31.3,70,31.3,70,32.17,67.77c.09-.22.16-.44.24-.66s.13-.47-.09-.63-.45,0-.65.09c-.46.28-.88.65-1.36.88-2.72,1.28-4.69,0-4.86-3.24s2-5.54,5.5-6.07a35.35,35.35,0,0,1,5.34-.3,1.87,1.87,0,0,1,2,2.12,3.75,3.75,0,0,0,0,.58c0,.28.16.57.48.59s.37-.38.34-.61c-.32-2,.74-3.56,1.79-5.12a5.42,5.42,0,0,1,2.78-1.81,2.51,2.51,0,0,0,1.44-1.69c.66-1.9,1.68-3.46,3.81-4A1.86,1.86,0,0,0,50.41,47c.79-1.88,2.46-2.32,4.22-2.65l.69-.13c.63-.14.91-.31.33-1a1.87,1.87,0,0,1-.09-2.63,2.52,2.52,0,0,1,3-.31,2.77,2.77,0,0,1,1.18,1.54,1,1,0,0,0,1.47.72c.81-.25.39-.88.22-1.36a5.88,5.88,0,0,0-.56-1,1.24,1.24,0,0,1-.07-1.43,2.62,2.62,0,0,0,.28-2.64,17.94,17.94,0,0,1-.43-3.81c0-1-.27-1.13-1.08-.55a14.19,14.19,0,0,0-1.34,1.12c-.67.61-1.22.65-1.63-.27-.17-.39-.37-.77-.56-1.15-.74-1.53-2.1-1.62-3.14-.21a17.33,17.33,0,0,0-1.58,3A4.29,4.29,0,0,1,46,36.34a13.58,13.58,0,0,1-3.65-2c-2.18-1.89-.9-3.76.88-4.71a31.64,31.64,0,0,1,4.89-1.87c.72-.24,1.25-.45.83-1.35-.18-.4,0-.75.21-1.11a7.89,7.89,0,0,0,.76-1.68c.21-.95.73-1.36,1.65-1.15.62.14,1.23,1.72.77,2.19a5.66,5.66,0,0,0-1.18,2.92c-.06.23-.42.49.08.6.28.07.62,0,.6-.34,0-1,.61-1.44,1.35-1.85a2.67,2.67,0,0,0,.89-1.2,2.16,2.16,0,0,1,3.33-.89,1.6,1.6,0,0,1,.3,2.73A10.1,10.1,0,0,1,55.2,28.1c1.2,0,1.93.79,2.8,1.36.61.4,1.12.59,1.66-.38a9.28,9.28,0,0,0,1.26-2.2c.15-.6.89-.48,1.42-.55.3,0,.69,0,.82-.34a.71.71,0,0,0-.36-.8c-1.38-.83-1.81-2.57-3.25-3.34a3,3,0,0,0-1.38-.56c-1.39,0-2.79,0-4.18,0a6.51,6.51,0,0,1-1.81-.14A1.77,1.77,0,0,0,50,21.9a4.42,4.42,0,0,1-1.32,1.3c-.25.19-.52.34-.58.69-.09.51.08,1.14-.55,1.44a4.89,4.89,0,0,1-2.41.76,23.44,23.44,0,0,1-2.64-.44.7.7,0,0,1-.65-.71c0-.44.3-.56.68-.65A1.69,1.69,0,0,0,44,22c-.13-.43-.46-.29-.66-.2a3.4,3.4,0,0,1-3.51-.39c-.26-.16-.61-.15-.88-.3-1.78-.94-3.1-.26-4.28,1.25.71.09,1.21-.4,1.81-.44.91-.07,1.3.37.88,1.17-.82,1.57-.5,2.4-3.07,1.55a10.24,10.24,0,0,0-6.74-.2,2.71,2.71,0,0,1-2-.18c-1.08-.51-1.18-.79-.29-1.65a85.8,85.8,0,0,1,7.73-6.53A78.73,78.73,0,0,1,48,7.16,81.8,81.8,0,0,1,66.31,1.4a83.28,83.28,0,0,1,24-.95,81.31,81.31,0,0,1,37.54,13.77,91.71,91.71,0,0,1,9.7,7.8c.35.32.95.67.56,1.23s-1,.21-1.43-.07c-.64-.38-1.25-.78-1.88-1.17s-1.2-.27-1.43.53a2.14,2.14,0,0,1-2.13,1.61,13.5,13.5,0,0,0-3.35.9,15.41,15.41,0,0,1-4.33.81,2.74,2.74,0,0,1-1.92-.34,3.46,3.46,0,0,0-2.89-.42c-1.68.3-3.31.46-4.76-.76a1.67,1.67,0,0,0-1.68-.2,25.45,25.45,0,0,1-3.85.85,4.21,4.21,0,0,0-3.64,3.3c-.25,1.12-1.16,1.38-2,1.7a2.58,2.58,0,0,0-1.48.84c-.28.43-.7.85-.29,1.35a1.38,1.38,0,0,0,1.64.58c.58-.23,1.11-.57,1.69-.79a1.22,1.22,0,0,1,1.82,1.2c0,.24,0,.47,0,.7,0,.4,0,.84.48,1s.66-.32.83-.64a5.11,5.11,0,0,1,1.42-1.36c.51-.44.64-.78,0-1.27-1-.81-1-1.13-.14-2.13a5.76,5.76,0,0,1,2.93-1.57.87.87,0,0,1,1.07.5.73.73,0,0,1-.29,1c-.74.39-.46.86-.17,1.34a2,2,0,0,1-.18,2.58,4.55,4.55,0,0,0-.86,2c-.68,2.78-1.26,3-4.56,2.56a12.34,12.34,0,0,1-2.08-.74c-.57-.19-.56-.68-.67-1.12a.45.45,0,0,0-.49-.4c-.22,0-.31.22-.32.42a1.67,1.67,0,0,1-1.69,1.61.74.74,0,0,0-.6.49c-.9,2.37-3,3.1-5.14,3.75-.14,0-.27.11-.56.22a2.9,2.9,0,0,1,1.22,2.66c-.09,1.25-.24,1.46-1.46,1.24a3.66,3.66,0,0,0-2.48.14,1.72,1.72,0,0,0-1.07,2.17,3.94,3.94,0,0,1-.07,2.45c-.06.19-.18.49,0,.53,1.12.36,1.54,2,3,1.64.19,0,.47,0,.56-.11.86-1.13,2.35-1.63,3-3,.47-1.09,1-2.06,2.52-2,.76,0,1.15-.84,1.65-1.36,1.16-1.23,1.47-1.24,2.54,0a7.08,7.08,0,0,0,2,1.77,4.68,4.68,0,0,1,2,2.54c.16-1.84-.26-2.69-1.64-3.32-1.08-.5-1.29-1.53-1.57-2.45a.68.68,0,0,1,1.17-.61c1.17,1.06,2.71,1.93,3.5,3.11S111.7,49.64,112,51c.11.49.35,1,1,.91s.36-.72.36-1.14,0-1.17.63-1.39a1.17,1.17,0,0,1,1.45.71c.41.92,1.17,1,2,1.18,1.22.22,2.44.42,3.66.69,1.75.38,2.15,1.36,1.23,2.85-.27.43-.45.9-.69,1.34a3.22,3.22,0,0,1-3.06,1.95,22.83,22.83,0,0,0-2.32.17,2.46,2.46,0,0,1-1.15,0c-1.7-.85-3.52-.53-5.29-.76-2.07-.26-4.5-.72-5.31-3.39a1.68,1.68,0,0,0-2.67-.84,9.25,9.25,0,0,1-6.67,1.47c-2-.31-3.13.89-4.24,2.06A4,4,0,0,0,89.59,60c.08.65-.48,1-1,1.36a6.73,6.73,0,0,0-2.92,3.49,3.59,3.59,0,0,0-.26,2.05,4.45,4.45,0,0,1-.61,3.43c-1.13,2.25-1,2.29.6,4.18a44.34,44.34,0,0,0,3.07,3.34,2.6,2.6,0,0,0,3,.7c1.48-.53,3.07-.23,4.62-.11a3.57,3.57,0,0,0,1.38,0,5.67,5.67,0,0,1,6.09,2.19,2.37,2.37,0,0,1,.19,2.14,5.42,5.42,0,0,0,1.46,6c1.27,1.3,1.3,3.21,2.28,4.68.3.46-.13,1-.45,1.36-.89,1.1-.87,2.15-.65,3.6.33,2.24,1.46,4.35,1.16,6.7a3.26,3.26,0,0,0,.67,2.51,6.57,6.57,0,0,1,.82,2.65c.5,2.09.9,2.23,3,1.86a12.42,12.42,0,0,0,6.43-3.73,6.25,6.25,0,0,0,1.45-2.75c.41-1.26.55-2.61,2.19-3.16.93-.31.73-1.53.46-2.3a1.69,1.69,0,0,1,1.08-2.4,8.43,8.43,0,0,0,2-1.55,3,3,0,0,0,1-2.38c0-2.84,0-5.67,0-8.51a1.38,1.38,0,0,1,.28-1.1c1.45-1.28,2.42-3,4.15-4a6.24,6.24,0,0,0,2.27-5,.51.51,0,0,0-.54-.49,5.1,5.1,0,0,0-1,.07,4.71,4.71,0,0,1-5.56-3.35,4.77,4.77,0,0,0-1.68-2.6,8.91,8.91,0,0,1-2.75-3.4c-.53-1.16-.93-2.39-1.39-3.58a1.76,1.76,0,0,1,.78-2.22,1.4,1.4,0,0,1,2.06.37c1.84,2.18,3.89,4.27,4,7.41a5.76,5.76,0,0,0,1.47,3.23,1.94,1.94,0,0,0,2.47.71,11.32,11.32,0,0,0,4.38-2.77,7.8,7.8,0,0,1,2.24-1.44c1.64-.87,1.56-1.46.61-2.93-1.38-2.15-3.7-2.22-5.66-3.12a5.78,5.78,0,0,1-.84-.37c-.38-.24-.7-.6-.54-1.06s.62-.32,1-.29A23.18,23.18,0,0,1,140,61.19a7.43,7.43,0,0,0,3.45.42,3.29,3.29,0,0,1,3.37,1.81,2.05,2.05,0,0,0,.55.74c2.67,1.89,3.26,4.88,4.1,7.74a12.8,12.8,0,0,0,1.34,3.58c.46.71,1,1.17,1.93.87s1.61-.46,1.63-1.7.25-2.27-.67-3.26c-.55-.6-.11-1.19.39-1.6,1.35-1.12,2.7-2.23,4.09-3.28,1-.8,1.7-.53,1.94.79a85,85,0,0,1,1.06,19.38A78.05,78.05,0,0,1,161.28,100a81.46,81.46,0,0,1-55.16,59.6,82,82,0,0,1-28.51,3.62,80.49,80.49,0,0,1-27.46-6.19A78.66,78.66,0,0,1,35.34,149a82.35,82.35,0,0,1-29-35.52A80.53,80.53,0,0,1,1.08,95.41a83.05,83.05,0,0,1-.91-19A80.65,80.65,0,0,1,11,40.58c1-1.71,2.11-3.34,3.19-5,.16-.25.38-.59.74-.4s.15.54.09.83a1.79,1.79,0,0,1-.16.44c-.53.95-.34,1.23.77,1A1.09,1.09,0,0,1,16.89,39a15,15,0,0,0-1,5.92c0,1.22-.8,2.16-1.43,3.13-.83,1.25-1.86,2.39-2,4a3,3,0,0,0,.36,2.25c1.57,1.87,1.6,4.07,1.46,6.3a4.39,4.39,0,0,0,1.8,3.71A5.28,5.28,0,0,0,16.6,64.61Zm30.79,54.71a3.94,3.94,0,0,0,.43,2.39A38.35,38.35,0,0,0,51.29,127c.79.92,1.6,2,3,2,.45,0,1.08.24,1.32-.16s-.28-.83-.56-1.17c-1.08-1.34-1.92-2.76-1.58-4.57a19.31,19.31,0,0,0,.2-3.72,2.33,2.33,0,0,1,1.08-2.15A4.73,4.73,0,0,0,57,114.63a3.51,3.51,0,0,1,1.55-2.25,4.2,4.2,0,0,0,1.84-2,16,16,0,0,0,1.29-3.6c.22-1,.25-2.08,1.05-2.71a6.65,6.65,0,0,1,2.35-1.25,2.09,2.09,0,0,0,1.42-1.42,13.07,13.07,0,0,0,.89-5.13,7,7,0,0,1,.87-3.56,12,12,0,0,0,.89-2c.24-.77.57-1.66,0-2.37A8.58,8.58,0,0,0,64,85.05a8.12,8.12,0,0,1-5.58-3.54,8.12,8.12,0,0,0-3.73-3.21,7.77,7.77,0,0,1-2.39-1.6c-2.23-2-4.64-3.3-7.87-2.51a6.7,6.7,0,0,0-4.14,2.87,1.61,1.61,0,0,0-.34,1.09c.14,1.44-.81,2.77-.4,4.25.1.38-.29.68-.6.93a7.45,7.45,0,0,0-1.88,3.42A1,1,0,0,0,37.48,88c1.43.76,1.22,1.77.71,3-.61,1.47-.43,2.24.93,2.94,1.88,1,3.18,2.58,4.82,3.81a4.25,4.25,0,0,1,1.6,3c.4,3.25-.11,6.5.2,9.74a5.76,5.76,0,0,0,.57,2.81C47.65,115.18,47.21,117.3,47.39,119.32ZM57.58,18.78c2.06.93,3.64-.05,5.05-1.24a3.09,3.09,0,0,1,3.15-.48c.64.16.8.57.23,1-.79.53-.34.82.16,1,.94.36,1.93.59,2.87.95,2.16.81,2.44,2,.94,3.74a5.82,5.82,0,0,0-.41,6.7c.8,1.27,1.9.51,2.84.65.67.1,1.1-.5,1.3-1.14a2.56,2.56,0,0,1,1.79-1.68c.73-.24,1.44-.55,2.18-.79,2.76-.88,5-2.79,7.74-3.74a1.44,1.44,0,0,0,.88-1A6.65,6.65,0,0,1,89,18.64a1.63,1.63,0,0,0,.6-.7A3.41,3.41,0,0,1,92,15.82c.26-.07.56-.22.47-.56S92,15,91.73,15c-1,0-1.94,0-2.91.14a22.75,22.75,0,0,1-7.41,0,3.6,3.6,0,0,0-3.21.6,2.83,2.83,0,0,1-2.78.3,5,5,0,0,0-3.61-.28.81.81,0,0,1-.85-.28,1.54,1.54,0,0,0-2-.21,2.15,2.15,0,0,1-1.36.22c-3.5-.39-6.86.77-10.31.92a2.84,2.84,0,0,0-.57.1c-.19,0-.4.11-.42.33s.22.3.4.35.53.11.79.18,1,.09,1.07.57C58.67,18.51,57.92,18.43,57.58,18.78ZM97,39.64a1.62,1.62,0,0,0,1.46-1c.26-.64-.45-.81-.79-1.13a4,4,0,0,1-1.52-3c0-.4-.13-.85-.65-.76A1,1,0,0,0,94.54,35c.06.33-.43.85.35,1,1.29.21,1.54.86.87,2.1C95.22,39.09,95.56,39.66,97,39.64ZM46,19.55c-.37-.36-.65,0-1,0a1.88,1.88,0,0,1-1.55-.25c-1.19-.89-1.88-.84-3.06.21C42.26,21,44.1,19.72,46,19.55Z"/></g></g></svg>