<svg xmlns="http://www.w3.org/2000/svg" viewBox="0 0 210.88 99.99"><defs><style>.cls-1{fill:#77897f;}.cls-2{fill:#353f39;}.cls-3{fill:#90a394;}</style></defs><title>アセット 2</title><g id="レイヤー_2" data-name="レイヤー 2"><g id="レイヤー_1-2" data-name="レイヤー 1"><path class="cls-1" d="M5.37,40.24C32.39,8.61,107,.9,145,1.62c23.87.45,50.84,6.38,62.88,27a8.22,8.22,0,0,1,1.46,4.64c-.23,2.81-2.9,4.69-5.3,6.16L130.28,84.7c-9.28,5.69-18.86,11.49-29.6,13.24C90.15,99.66,79.42,97.33,69,95L13.94,82.71c-3.38-.75-7-1.68-9.13-4.45a13.71,13.71,0,0,1-2.15-6C.78,61.52.91,50.08,5.66,40.3S46.23,15.2,58.75,11.9"/><path class="cls-1" d="M6.44,41.3C25.25,19.72,57.69,12.24,84.7,7.71a343.46,343.46,0,0,1,44.8-4.45c14.58-.5,29.37-.31,43.56,3.42,8.3,2.18,16.41,5.55,23.19,10.9A42.62,42.62,0,0,1,205.14,27c2.13,3.12,2.68,8-.6,10.33-2.5,1.8-5.31,3.28-7.92,4.89l-57,35c-9.11,5.59-18.15,11.83-28,15.94-11.38,4.73-22.84,4.33-34.74,2-21.3-4.22-42.91-8.73-63.92-14.22C8.71,79.84,5.66,78,4.41,73.43a48.6,48.6,0,0,1-1.27-9.76A49.66,49.66,0,0,1,5,46.26C7.26,38.66,12.28,35,18.86,31A161.5,161.5,0,0,1,59.15,13.35a1.5,1.5,0,0,0-.79-2.9c-13.85,3.76-27.7,10.12-40,17.39C13.63,30.61,8,33.85,5,38.53-.09,46.24-.5,57.42.35,66.25.75,70.43,1,75.52,3.51,79c2.37,3.23,6.34,4.26,10,5.14,12.62,3,25.32,5.65,38,8.47,11.89,2.66,23.91,6.11,36.09,7.16,10.93.94,21-1.52,30.71-6.47,10.76-5.48,20.89-12.34,31.17-18.65L183,54.09,199.81,43.8c3.5-2.15,8.83-4.36,10.56-8.45,2.8-6.66-6.62-15.44-11.09-19.18C185.92,5,167.68,1.29,150.7.33,135.17-.55,119.41.43,104,2.08c-19.06,2-38.16,5.43-56.38,11.5C31.73,18.87,15.5,26.35,4.31,39.18c-1.26,1.45.85,3.58,2.13,2.12Z"/><path class="cls-2" d="M41,63.63H46c2.54,0,2.55-4,0-4H41a2,2,0,0,0,0,4Z"/><path class="cls-2" d="M57.14,64.14h5.57c2.54,0,2.55-4,0-4H57.14c-2.54,0-2.55,4,0,4Z"/><path class="cls-2" d="M49,72.74h7.09a2,2,0,0,0,0-3.95H49c-2.54,0-2.54,3.95,0,3.95Z"/><path class="cls-3" d="M30.29,40.44c10.4-4.25,20.82-8.51,31.54-11.89a176.89,176.89,0,0,1,33.39-6.93,582.94,582.94,0,0,1,69.66-3.32c6.36.05,6.37-9.83,0-9.88A571.58,571.58,0,0,0,94,11.88a187.1,187.1,0,0,0-33.56,6.77C49.25,22.07,38.45,26.5,27.67,30.91c-2.46,1-4.24,3.29-3.46,6.08.66,2.33,3.59,4.47,6.08,3.45Z"/><path class="cls-3" d="M176.55,21.94a7.09,7.09,0,0,0,3.52,2.24,5.74,5.74,0,0,0,6.44-2.64,6,6,0,0,0-1-7,7.44,7.44,0,0,0-5.11-1.94,4.94,4.94,0,0,0-3.5,8.44,5.39,5.39,0,0,0,3.5,1.45l.55,0-1.32-.17a3,3,0,0,1,.66.16L179.09,22a1.57,1.57,0,0,1,.33.19l-1-.77a1.29,1.29,0,0,1,.16.17l-.77-1a1.54,1.54,0,0,1,.17.31l-.5-1.18a.79.79,0,0,1,.06.22l-.18-1.32a.89.89,0,0,1,0,.23l.18-1.32a.73.73,0,0,1-.06.21l.49-1.18-.05.1.77-1a.54.54,0,0,1-.15.15l1-.77-.16.1,1.18-.5a.58.58,0,0,1-.19,0l1.32-.18h-.2l1.31.18a1.81,1.81,0,0,1-.31-.09l1.18.5a2.7,2.7,0,0,1-.52-.3l1,.77a3.46,3.46,0,0,1-.61-.6,3.75,3.75,0,0,0-1.59-1,3.66,3.66,0,0,0-1.9-.43,5,5,0,0,0-5,4.94l.18,1.32a5.07,5.07,0,0,0,1.27,2.18Z"/></g></g></svg>