<svg xmlns="http://www.w3.org/2000/svg" viewBox="0 0 318.45 150.14"><defs><style>.cls-1{fill:#e5eae7;}.cls-2{fill:#fff;}.cls-3{fill:#627a6a;}</style></defs><title>アセット 1</title><g id="レイヤー_2" data-name="レイヤー 2"><g id="レイヤー_1-2" data-name="レイヤー 1"><path class="cls-1" d="M7.39,60.21c41-48,154.17-59.69,211.93-58.6,36.21.68,77.14,9.69,95.41,41,1.26,2.16,2.42,4.55,2.21,7.05-.35,4.25-4.39,7.1-8,9.34l-112,68.7c-14.08,8.64-28.62,17.45-44.92,20.11-16,2.6-32.25-.94-48.06-4.47L20.39,124.67c-5.13-1.15-10.7-2.56-13.87-6.76-2-2.61-2.7-5.93-3.26-9.15C.42,92.51.61,75.14,7.82,60.31s61.57-38.1,80.57-43.1"/><path class="cls-1" d="M8.45,61.27c13.74-15.88,33-26.12,52.28-33.64,22-8.58,45.29-14,68.59-17.81a524.35,524.35,0,0,1,67.82-6.54C220,2.56,243.22,3,265.34,9.45c12.23,3.54,24.16,8.94,34,17.2A64.64,64.64,0,0,1,312,41c2.71,4.21,4.94,8.6,1.11,13-2.74,3.14-7.4,5.19-10.87,7.33L211.43,117c-14.2,8.71-28.28,18.47-43.79,24.73-17.26,7-34.88,6-52.81,2.39-17.16-3.47-34.21-7.56-51.3-11.37L37.3,126.91c-7.72-1.73-16.14-2.71-23.51-5.65-9.14-3.66-9.64-14.14-10.37-22.7A82.21,82.21,0,0,1,4.64,74.31c1.23-5.69,2.89-12.08,6.78-16.58a48.19,48.19,0,0,1,9-7.68C37.81,38,58.15,29.18,78,22.1c3.56-1.27,7.15-2.46,10.8-3.44A1.5,1.5,0,0,0,88,15.77C67.5,21.26,47.1,30.7,28.78,41.28c-7.34,4.25-16,9.13-21,16.23C0,68.61-.69,85.57.42,98.56c.56,6.55.81,15,5,20.41s11.3,6.42,17.44,7.79l56.35,12.58C97.47,143.4,116,148.82,134.66,150c17.18,1.08,32.75-3.84,47.7-12,16.53-9,32.35-19.49,48.4-29.33L280.82,78l24.61-15.09c4.87-3,12.21-6.37,13-12.85.64-5.5-3.95-11.12-7.09-15.18A69.93,69.93,0,0,0,298,21.78C276.58,5.7,248.23,1,222.11.18a478.35,478.35,0,0,0-67.58,3.18c-25.54,2.85-51,7.37-75.66,14.85C57,24.86,35,33.88,17.24,48.52A90.64,90.64,0,0,0,6.32,59.15c-1.25,1.46.86,3.59,2.13,2.12Z"/><path class="cls-2" d="M45.2,60.52C61,54.06,76.78,47.6,93.05,42.48A267.91,267.91,0,0,1,143.72,32a882.22,882.22,0,0,1,105.7-5c9.66.07,9.67-14.93,0-15-35.88-.28-72,1.08-107.63,5.25A285.63,285.63,0,0,0,90.87,27.45C74,32.65,57.57,39.36,41.21,46.05c-3.73,1.53-6.42,5-5.24,9.23,1,3.54,5.45,6.78,9.23,5.24Z"/><path class="cls-2" d="M267.13,32.44a10.71,10.71,0,0,0,5.34,3.4,8.68,8.68,0,0,0,9.77-4,9,9,0,0,0-1.54-10.68c-2.13-2.13-4.86-2.77-7.76-2.94A7.5,7.5,0,0,0,267.63,31a8.27,8.27,0,0,0,5.31,2.2l.83.06-2-.26a4.23,4.23,0,0,1,1,.25L271,32.52a3.15,3.15,0,0,1,.5.3L270,31.65a1.18,1.18,0,0,1,.25.25L269,30.38a2.42,2.42,0,0,1,.26.47l-.76-1.79a1.35,1.35,0,0,1,.09.33l-.27-2a1,1,0,0,1,0,.34l.27-2a1.17,1.17,0,0,1-.09.32l.75-1.79-.09.15,1.18-1.52a1.7,1.7,0,0,1-.22.24L271.67,22a1,1,0,0,1-.25.15l1.79-.76a.89.89,0,0,1-.28.07l2-.27a1.51,1.51,0,0,1-.3,0l2,.27a2.62,2.62,0,0,1-.48-.13l1.8.75a3.84,3.84,0,0,1-.79-.45l1.52,1.17a5.34,5.34,0,0,1-.93-.91,5.51,5.51,0,0,0-2.41-1.55,5.66,5.66,0,0,0-2.89-.65,7.66,7.66,0,0,0-5.31,2.2,7.54,7.54,0,0,0-2.19,5.3l.26,2a7.5,7.5,0,0,0,1.93,3.31Z"/><path class="cls-3" d="M69.14,88.71H61.39c-3.87,0-3.87,6,0,6h7.75C73,94.71,73,88.71,69.14,88.71Z"/><path class="cls-3" d="M94.14,89.71H86.39c-3.87,0-3.87,6,0,6h7.75C98,95.71,98,89.71,94.14,89.71Z"/><path class="cls-3" d="M84.25,102.71H74.52c-4.84,0-4.85,6,0,6h9.73C89.09,108.71,89.1,102.71,84.25,102.71Z"/></g></g></svg>